<?xml version="1.0" encoding="UTF-8" standalone="no"?>
<!-- Created with Inkscape (http://www.inkscape.org/) -->

<svg
   xmlns:dc="http://purl.org/dc/elements/1.1/"
   xmlns:cc="http://creativecommons.org/ns#"
   xmlns:rdf="http://www.w3.org/1999/02/22-rdf-syntax-ns#"
   xmlns:svg="http://www.w3.org/2000/svg"
   xmlns="http://www.w3.org/2000/svg"
   xmlns:sodipodi="http://sodipodi.sourceforge.net/DTD/sodipodi-0.dtd"
   xmlns:inkscape="http://www.inkscape.org/namespaces/inkscape"
   width="32mm"
   height="32mm"
   viewBox="0 0 113.38583 113.38583"
   id="svg3809"
   version="1.1"
   inkscape:version="0.91 r13725"
   sodipodi:docname="favicon.svg">
  <defs
     id="defs3811" />
  <sodipodi:namedview
     id="base"
     pagecolor="#ffffff"
     bordercolor="#666666"
     borderopacity="1.0"
     inkscape:pageopacity="0.0"
     inkscape:pageshadow="2"
     inkscape:zoom="0.98994949"
     inkscape:cx="349.87785"
     inkscape:cy="-301.87668"
     inkscape:document-units="px"
     inkscape:current-layer="layer1"
     showgrid="false"
     inkscape:window-width="1920"
     inkscape:window-height="1018"
     inkscape:window-x="-8"
     inkscape:window-y="-8"
     inkscape:window-maximized="1"
     fit-margin-top="0"
     fit-margin-left="0"
     fit-margin-right="0"
     fit-margin-bottom="0"
     inkscape:showpageshadow="false"
     showborder="true" />
  <metadata
     id="metadata3814">
    <rdf:RDF>
      <cc:Work
         rdf:about="">
        <dc:format>image/svg+xml</dc:format>
        <dc:type
           rdf:resource="http://purl.org/dc/dcmitype/StillImage" />
        <dc:title></dc:title>
      </cc:Work>
    </rdf:RDF>
  </metadata>
  <g
     inkscape:label="Layer 1"
     inkscape:groupmode="layer"
     id="layer1"
     transform="translate(-1.9824665,19.462776)">
    <path
       style="clip-rule:evenodd;fill:#ed1f24;fill-rule:evenodd"
       inkscape:connector-curvature="0"
       class="st2"
       d="m 69.010524,31.072459 c -80.9,-125.299997 -87.9,97.700001 -18.5,42.9 7.1,-5.6 12.5,-16 17.2,-26.5 2.6,2.9 5.2,5.7 7.7,8.2 6.399999,6.4 12.199999,11.2 17.999999,11.4 21.399997,0.9 22.499997,-32.9 17.299997,-48 -3.3,-9.6999997 -12.699997,-25.8999971 -24.799997,-17.3999967 -3.7,2.5 -6.099999,6.699997 -10.799999,16.4999967 -1.7,3.7 -3.8,8.2 -6.1,12.9 l 0,0 z m 15.199999,20.8 c -3.899999,-3.4 -7.799999,-9 -11.799999,-15.3 1.1,-2.7 2.2,-5.3 3.3,-7.8 32.099996,-73.999997 47.599996,56.600001 8.499999,23.1 l 0,0 z m -28.099999,-18.1 c 2.3,2.7 4.7,5.6 7.1,8.4 -2.2,4 -4.4,7.8 -6.7,11 -6.9,9.8 -13.9,13.9 -20.2,13 -28.9000004,-3.8 -27.2000004,-89.399998 19.8,-32.4 l 0,0 z"
       id="path3587" />
  </g>
</svg>
