<?xml version="1.0" encoding="UTF-8" standalone="no"?>
<!-- Created with Inkscape (http://www.inkscape.org/) -->

<svg
   xmlns:dc="http://purl.org/dc/elements/1.1/"
   xmlns:cc="http://creativecommons.org/ns#"
   xmlns:rdf="http://www.w3.org/1999/02/22-rdf-syntax-ns#"
   xmlns:svg="http://www.w3.org/2000/svg"
   xmlns="http://www.w3.org/2000/svg"
   xmlns:sodipodi="http://sodipodi.sourceforge.net/DTD/sodipodi-0.dtd"
   xmlns:inkscape="http://www.inkscape.org/namespaces/inkscape"
   width="31.13496mm"
   height="25.555298mm"
   viewBox="0 0 110.32072 90.550266"
   id="svg4226"
   version="1.1"
   inkscape:version="0.91 r13725"
   sodipodi:docname="logo-icon.svg">
  <defs
     id="defs4228">
    <linearGradient
       id="SVGID_1_"
       gradientUnits="userSpaceOnUse"
       x1="429.93939"
       y1="135.8521"
       x2="428.3728"
       y2="146.8181"
       gradientTransform="translate(-78.233909,-87.815863)">
      <stop
         offset="0"
         style="stop-color:#414042"
         id="stop3874" />
      <stop
         offset="0.8548"
         style="stop-color:#414042;stop-opacity:0.1452"
         id="stop3876" />
      <stop
         offset="1"
         style="stop-color:#414042;stop-opacity:0"
         id="stop3878" />
    </linearGradient>
    <linearGradient
       y2="146.8181"
       x2="428.3728"
       y1="135.8521"
       x1="429.93939"
       gradientUnits="userSpaceOnUse"
       id="linearGradient4215">
      <stop
         id="stop4217"
         style="stop-color:#414042"
         offset="0" />
      <stop
         id="stop4219"
         style="stop-color:#414042;stop-opacity:0.1452"
         offset="0.8548" />
      <stop
         id="stop4221"
         style="stop-color:#414042;stop-opacity:0"
         offset="1" />
    </linearGradient>
  </defs>
  <sodipodi:namedview
     id="base"
     pagecolor="#ffffff"
     bordercolor="#666666"
     borderopacity="1.0"
     inkscape:pageopacity="0.0"
     inkscape:pageshadow="2"
     inkscape:zoom="1.4"
     inkscape:cx="265.04671"
     inkscape:cy="-103.61195"
     inkscape:document-units="px"
     inkscape:current-layer="layer1"
     showgrid="false"
     inkscape:showpageshadow="false"
     fit-margin-top="0"
     fit-margin-left="0"
     fit-margin-right="0"
     fit-margin-bottom="0"
     inkscape:window-width="1920"
     inkscape:window-height="1018"
     inkscape:window-x="-8"
     inkscape:window-y="-8"
     inkscape:window-maximized="1" />
  <metadata
     id="metadata4231">
    <rdf:RDF>
      <cc:Work
         rdf:about="">
        <dc:format>image/svg+xml</dc:format>
        <dc:type
           rdf:resource="http://purl.org/dc/dcmitype/StillImage" />
        <dc:title></dc:title>
      </cc:Work>
    </rdf:RDF>
  </metadata>
  <g
     inkscape:label="Layer 1"
     inkscape:groupmode="layer"
     id="layer1"
     transform="translate(-4.4481865,-3.3727863)">
    <path
       id="path3871"
       d="m 70.466091,42.184137 c -80.9,-125.3 -87.9,97.700003 -18.5,42.9 7.1,-5.6 12.5,-16 17.2,-26.5 2.6,2.9 5.2,5.7 7.7,8.2 6.4,6.4 12.2,11.2 18,11.4 21.399999,0.9 22.499999,-32.9 17.299999,-48 -3.3,-9.7 -12.699999,-25.9 -24.799999,-17.4 -3.7,2.5 -6.1,6.7 -10.8,16.5 -1.7,3.7 -3.8,8.2 -6.1,12.9 l 0,0 z m 15.2,20.8 c -3.9,-3.4 -7.8,-9 -11.8,-15.3 1.1,-2.7 2.2,-5.3 3.3,-7.8 32.099999,-74 47.599999,56.6 8.5,23.1 l 0,0 z m -28.1,-18.1 c 2.3,2.7 4.7,5.6 7.1,8.4 -2.2,4 -4.4,7.8 -6.7,11 -6.9,9.8 -13.9,13.9 -20.2,13 -28.9,-3.8 -27.2,-89.4 19.8,-32.4 l 0,0 z"
       class="st2"
       inkscape:connector-curvature="0"
       style="clip-rule:evenodd;fill:#ed1f24;fill-rule:evenodd" />
  </g>
</svg>
