<?xml version="1.0" encoding="UTF-8" standalone="no"?>
<!-- Created with Inkscape (http://www.inkscape.org/) -->

<svg
   xmlns:dc="http://purl.org/dc/elements/1.1/"
   xmlns:cc="http://creativecommons.org/ns#"
   xmlns:rdf="http://www.w3.org/1999/02/22-rdf-syntax-ns#"
   xmlns:svg="http://www.w3.org/2000/svg"
   xmlns="http://www.w3.org/2000/svg"
   xmlns:sodipodi="http://sodipodi.sourceforge.net/DTD/sodipodi-0.dtd"
   xmlns:inkscape="http://www.inkscape.org/namespaces/inkscape"
   width="87.291336mm"
   height="9.4826651mm"
   viewBox="0 0 309.30001 33.599994"
   id="svg4226"
   version="1.1"
   inkscape:version="0.91 r13725"
   sodipodi:docname="logo-text.svg">
  <defs
     id="defs4228">
    <linearGradient
       id="SVGID_1_"
       gradientUnits="userSpaceOnUse"
       x1="429.93939"
       y1="135.8521"
       x2="428.3728"
       y2="146.8181"
       gradientTransform="translate(-205.94819,-115.67301)">
      <stop
         offset="0"
         style="stop-color:#414042"
         id="stop3874" />
      <stop
         offset="0.8548"
         style="stop-color:#414042;stop-opacity:0.1452"
         id="stop3876" />
      <stop
         offset="1"
         style="stop-color:#414042;stop-opacity:0"
         id="stop3878" />
    </linearGradient>
    <linearGradient
       y2="146.8181"
       x2="428.3728"
       y1="135.8521"
       x1="429.93939"
       gradientUnits="userSpaceOnUse"
       id="linearGradient4215">
      <stop
         id="stop4217"
         style="stop-color:#414042"
         offset="0" />
      <stop
         id="stop4219"
         style="stop-color:#414042;stop-opacity:0.1452"
         offset="0.8548" />
      <stop
         id="stop4221"
         style="stop-color:#414042;stop-opacity:0"
         offset="1" />
    </linearGradient>
  </defs>
  <sodipodi:namedview
     id="base"
     pagecolor="#ffffff"
     bordercolor="#666666"
     borderopacity="1.0"
     inkscape:pageopacity="0.0"
     inkscape:pageshadow="2"
     inkscape:zoom="1.4"
     inkscape:cx="265.24309"
     inkscape:cy="-159.80802"
     inkscape:document-units="px"
     inkscape:current-layer="layer1"
     showgrid="false"
     inkscape:showpageshadow="false"
     fit-margin-top="0"
     fit-margin-left="0"
     fit-margin-right="0"
     fit-margin-bottom="0"
     inkscape:window-width="1280"
     inkscape:window-height="1002"
     inkscape:window-x="1912"
     inkscape:window-y="-8"
     inkscape:window-maximized="1" />
  <metadata
     id="metadata4231">
    <rdf:RDF>
      <cc:Work
         rdf:about="">
        <dc:format>image/svg+xml</dc:format>
        <dc:type
           rdf:resource="http://purl.org/dc/dcmitype/StillImage" />
        <dc:title></dc:title>
      </cc:Work>
    </rdf:RDF>
  </metadata>
  <g
     inkscape:label="Layer 1"
     inkscape:groupmode="layer"
     id="layer1"
     transform="translate(-4.2518043,-4.1269979)">
    <g
       id="g3841"
       transform="translate(-205.94819,-115.67301)">
      <path
         id="path3843"
         d="m 436.5,142.9 c 0.1,0 0.2,0 0.3,0 0,0 -0.2,0 -0.3,0 0,0 0,0 0,0 z"
         class="st1"
         inkscape:connector-curvature="0"
         style="fill:#58595b" />
      <path
         id="path3845"
         d="m 436.2,142.9 c 0.1,0 0.1,0 0.2,0 0,0 0,0 0.1,0 -0.1,0 -0.2,0 -0.3,0 z"
         class="st1"
         inkscape:connector-curvature="0"
         style="fill:#58595b" />
      <path
         id="path3847"
         d="m 435.5,142.8 c 0,0 0,0 0,0 0.2,0 0.4,0.1 0.5,0.1 0.1,0 0.1,0 0.2,0 -0.2,0 -0.4,-0.1 -0.7,-0.1 z"
         class="st1"
         inkscape:connector-curvature="0"
         style="fill:#58595b" />
      <path
         id="path3849"
         d="m 436.4,142.9 c 0,0 0.1,0 0.1,0 0,0 0,0 -0.1,0 0.1,0 0,0 0,0 z"
         class="st1"
         inkscape:connector-curvature="0"
         style="fill:#58595b" />
      <path
         id="path3851"
         d="m 436,142.9 c 0.1,0 0.3,0 0.4,0 -0.1,0 -0.1,0 -0.2,0 0,0 -0.1,0 -0.2,0 z"
         class="st1"
         inkscape:connector-curvature="0"
         style="fill:#58595b" />
      <path
         id="path3853"
         d="m 437.4,142.9 c -0.2,0 -0.3,0 -0.5,0 -0.1,0 -0.2,0 -0.3,0 0.2,0 0.5,0 0.8,0 z"
         class="st1"
         inkscape:connector-curvature="0"
         style="fill:#58595b" />
      <path
         id="path3855"
         d="m 447.2,125.9 c -3.1,-5.4 -10.1,-7.3 -15.5,-4.2 -3.4,2 -5.6,5.6 -5.7,9.5 l 0,0.1 c 0,0.2 0,0.4 0,0.6 l 0,21.2 6.6,0 0,-10.1 c -2.7,-1.4 -4.7,-3.9 -5.6,-6.8 1.5,3.4 4.7,5.9 8.5,6.6 0.2,0 0.5,0.1 0.7,0.1 0.1,0 0.2,0 0.3,0 0.1,0 0.3,0 0.4,0 1,0 2.1,0 3.1,-0.3 l 6,10.5 7.6,0 -8,-13.7 c 3.4,-3.6 4.1,-9.1 1.6,-13.5 z m -5.8,12.6 0,0 c -3.8,2.2 -8.7,0.9 -10.9,-2.9 -0.6,-1.1 -1,-2.3 -1.1,-3.6 l 0,-0.8 c 0.1,-2.7 1.6,-5.2 4,-6.5 3.8,-2.2 8.7,-0.9 10.9,2.9 2.2,3.8 0.9,8.7 -2.9,10.9 z"
         class="st1"
         inkscape:connector-curvature="0"
         style="fill:#58595b" />
      <path
         id="path3857"
         d="m 435.3,142.8 c 0.1,0 0.1,0 0.2,0 0,0 0,0 0,0 0,0 -0.1,0 -0.2,0 z"
         class="st1"
         inkscape:connector-curvature="0"
         style="fill:#58595b" />
      <path
         id="path3859"
         d="m 335.8,129.2 c 0,-1.6 1.4,-2.4 3.6,-2.4 2.7,0 7,1.4 10.4,3.4 l 3.1,-6.5 c -3.4,-2.2 -8.1,-3.6 -12.9,-3.6 -7.8,0 -13,3.8 -13,9.8 0,11.5 17.2,8.1 17.2,13.9 0,1.9 -1.6,2.8 -4.2,2.8 -3.4,0 -8.4,-2 -11.8,-4.9 l -3.2,6.4 c 3.9,3.2 9.5,5.2 14.9,5.2 7.3,0 13,-3.4 13,-10 0.1,-11.7 -17.1,-8.5 -17.1,-14.1 z"
         class="st1"
         inkscape:connector-curvature="0"
         style="fill:#58595b" />
      <polygon
         id="polygon3861"
         points="381.4,133.5 365.8,133.5 365.8,127 383,127 383,120.5 357.5,120.5 357.5,153.1 383.5,153.1 383.5,146.6 365.8,146.6 365.8,140 381.4,140 "
         class="st1"
         style="fill:#58595b" />
      <path
         id="path3863"
         d="m 399.5,120.5 -14.1,32.6 8.5,0 2.4,-6 14.2,0 2.3,6 8.8,0 -13.6,-32.6 -8.5,0 z m -0.8,20.3 4.7,-12.1 4.7,12.1 -9.4,0 z"
         class="st1"
         inkscape:connector-curvature="0"
         style="fill:#58595b" />
      <path
         id="path3865"
         d="m 472.6,146.2 c -5.2,0 -9.1,-4.1 -9.1,-9.6 0,-5.4 3.9,-9.5 9.1,-9.5 2.9,0 6.1,1.6 8.2,4.2 l 4.8,-5.7 c -3.3,-3.4 -8.3,-5.5 -13.1,-5.5 -9.9,0 -17.4,7.1 -17.4,16.5 0,9.5 7.3,16.8 17.1,16.8 4.8,0 10,-2.4 13.5,-6 l -4.8,-5.1 c -2.4,2.4 -5.6,3.9 -8.3,3.9 z"
         class="st1"
         inkscape:connector-curvature="0"
         style="fill:#58595b" />
      <polygon
         id="polygon3867"
         points="497.7,133.9 497.7,120.5 489.4,120.5 489.4,153.1 497.7,153.1 497.7,140.4 511.2,140.4 511.2,153.1 519.5,153.1 519.5,120.5 511.2,120.5 511.2,133.9 "
         class="st1"
         style="fill:#58595b" />
    </g>
    <path
       id="path3869"
       d="m 4.2518043,37.426994 0,-33.2999999 22.4999997,0 0,3.9 -18.1,0 0,10.3999999 15.6,0 0,3.9 -15.6,0 0,15.1 -4.3999997,0 0,0 z m 27.9999997,0 0,-33.2999999 4.4,0 0,29.3999999 16.4,0 0,3.9 -20.8,0 0,0 z m 26.2,0 0,-33.2999999 24.1,0 0,3.9 -19.7,0 0,10.1999999 18.4,0 0,3.9 -18.4,0 0,11.4 20.4,0 0,3.9 -24.8,0 0,0 z m 27.6,0 12.899996,-17.3 -11.299996,-15.9999999 5.3,0 6.099996,8.4999999 c 1.3,1.8 2.1,3.1 2.6,4.1 0.8,-1.2 1.6,-2.4 2.7,-3.7 l 6.7,-8.8999999 4.8,0 -11.6,15.7999999 12.5,17.5 -5.4,0 -8.4,-11.9 c -0.5,-0.7 -0.9,-1.4 -1.4,-2 -0.7,1.1 -1.3,1.9 -1.6,2.3 l -8.499996,11.6 -5.4,0 0,0 z"
       class="st1"
       inkscape:connector-curvature="0"
       style="fill:#58595b" />
    <path
       id="path3880"
       d="m 226.6518,27.326994 c 0,0 -4.6,-2.5 -5.6,-6.8 -1,-4.3 -1,-4.9 -1,-4.9 l 0,17.7 6.6,0 0,-6 z"
       class="st3"
       inkscape:connector-curvature="0"
       style="fill:url(#SVGID_1_)" />
    <g
       id="g3882"
       transform="translate(-205.94819,-115.67301)">
      <path
         id="path3884"
         d="m 431,132.1 c -0.3,0 -0.5,-0.2 -0.5,-0.5 0,-3.5 2.9,-6.4 6.4,-6.4 0.3,0 0.5,0.2 0.5,0.5 0,0.3 -0.2,0.5 -0.5,0.5 -3,0 -5.4,2.4 -5.4,5.4 0,0.3 -0.2,0.5 -0.5,0.5 z"
         class="st1"
         inkscape:connector-curvature="0"
         style="fill:#58595b" />
    </g>
  </g>
</svg>
