<?xml version="1.0" encoding="UTF-8" standalone="no"?>
<!-- Created with Inkscape (http://www.inkscape.org/) -->

<svg
   xmlns:dc="http://purl.org/dc/elements/1.1/"
   xmlns:cc="http://creativecommons.org/ns#"
   xmlns:rdf="http://www.w3.org/1999/02/22-rdf-syntax-ns#"
   xmlns:svg="http://www.w3.org/2000/svg"
   xmlns="http://www.w3.org/2000/svg"
   xmlns:sodipodi="http://sodipodi.sourceforge.net/DTD/sodipodi-0.dtd"
   xmlns:inkscape="http://www.inkscape.org/namespaces/inkscape"
   width="123.27972mm"
   height="25.555298mm"
   viewBox="0 0 436.81789 90.550266"
   id="svg4226"
   version="1.1"
   inkscape:version="0.91 r13725"
   sodipodi:docname="logo.svg">
  <defs
     id="defs4228">
    <linearGradient
       id="SVGID_1_"
       gradientUnits="userSpaceOnUse"
       x1="429.93939"
       y1="135.8521"
       x2="428.3728"
       y2="146.8181">
      <stop
         offset="0"
         style="stop-color:#414042"
         id="stop3874" />
      <stop
         offset="0.8548"
         style="stop-color:#414042;stop-opacity:0.1452"
         id="stop3876" />
      <stop
         offset="1"
         style="stop-color:#414042;stop-opacity:0"
         id="stop3878" />
    </linearGradient>
  </defs>
  <sodipodi:namedview
     id="base"
     pagecolor="#ffffff"
     bordercolor="#666666"
     borderopacity="1.0"
     inkscape:pageopacity="0.0"
     inkscape:pageshadow="2"
     inkscape:zoom="1.4"
     inkscape:cx="265.04671"
     inkscape:cy="-103.61196"
     inkscape:document-units="px"
     inkscape:current-layer="layer1"
     showgrid="false"
     inkscape:showpageshadow="false"
     fit-margin-top="0"
     fit-margin-left="0"
     fit-margin-right="0"
     fit-margin-bottom="0"
     inkscape:window-width="1920"
     inkscape:window-height="1018"
     inkscape:window-x="-8"
     inkscape:window-y="-8"
     inkscape:window-maximized="1" />
  <metadata
     id="metadata4231">
    <rdf:RDF>
      <cc:Work
         rdf:about="">
        <dc:format>image/svg+xml</dc:format>
        <dc:type
           rdf:resource="http://purl.org/dc/dcmitype/StillImage" />
        <dc:title></dc:title>
      </cc:Work>
    </rdf:RDF>
  </metadata>
  <g
     inkscape:label="Layer 1"
     inkscape:groupmode="layer"
     id="layer1"
     transform="translate(-4.4481865,-3.3727821)">
    <g
       transform="translate(-78.233909,-87.815863)"
       id="g3839">
      <g
         id="g3841">
        <path
           style="fill:#58595b"
           inkscape:connector-curvature="0"
           class="st1"
           d="m 436.5,142.9 c 0.1,0 0.2,0 0.3,0 0,0 -0.2,0 -0.3,0 0,0 0,0 0,0 z"
           id="path3843" />
        <path
           style="fill:#58595b"
           inkscape:connector-curvature="0"
           class="st1"
           d="m 436.2,142.9 c 0.1,0 0.1,0 0.2,0 0,0 0,0 0.1,0 -0.1,0 -0.2,0 -0.3,0 z"
           id="path3845" />
        <path
           style="fill:#58595b"
           inkscape:connector-curvature="0"
           class="st1"
           d="m 435.5,142.8 c 0,0 0,0 0,0 0.2,0 0.4,0.1 0.5,0.1 0.1,0 0.1,0 0.2,0 -0.2,0 -0.4,-0.1 -0.7,-0.1 z"
           id="path3847" />
        <path
           style="fill:#58595b"
           inkscape:connector-curvature="0"
           class="st1"
           d="m 436.4,142.9 c 0,0 0.1,0 0.1,0 0,0 0,0 -0.1,0 0.1,0 0,0 0,0 z"
           id="path3849" />
        <path
           style="fill:#58595b"
           inkscape:connector-curvature="0"
           class="st1"
           d="m 436,142.9 c 0.1,0 0.3,0 0.4,0 -0.1,0 -0.1,0 -0.2,0 0,0 -0.1,0 -0.2,0 z"
           id="path3851" />
        <path
           style="fill:#58595b"
           inkscape:connector-curvature="0"
           class="st1"
           d="m 437.4,142.9 c -0.2,0 -0.3,0 -0.5,0 -0.1,0 -0.2,0 -0.3,0 0.2,0 0.5,0 0.8,0 z"
           id="path3853" />
        <path
           style="fill:#58595b"
           inkscape:connector-curvature="0"
           class="st1"
           d="m 447.2,125.9 c -3.1,-5.4 -10.1,-7.3 -15.5,-4.2 -3.4,2 -5.6,5.6 -5.7,9.5 l 0,0.1 c 0,0.2 0,0.4 0,0.6 l 0,21.2 6.6,0 0,-10.1 c -2.7,-1.4 -4.7,-3.9 -5.6,-6.8 1.5,3.4 4.7,5.9 8.5,6.6 0.2,0 0.5,0.1 0.7,0.1 0.1,0 0.2,0 0.3,0 0.1,0 0.3,0 0.4,0 1,0 2.1,0 3.1,-0.3 l 6,10.5 7.6,0 -8,-13.7 c 3.4,-3.6 4.1,-9.1 1.6,-13.5 z m -5.8,12.6 0,0 c -3.8,2.2 -8.7,0.9 -10.9,-2.9 -0.6,-1.1 -1,-2.3 -1.1,-3.6 l 0,-0.8 c 0.1,-2.7 1.6,-5.2 4,-6.5 3.8,-2.2 8.7,-0.9 10.9,2.9 2.2,3.8 0.9,8.7 -2.9,10.9 z"
           id="path3855" />
        <path
           style="fill:#58595b"
           inkscape:connector-curvature="0"
           class="st1"
           d="m 435.3,142.8 c 0.1,0 0.1,0 0.2,0 0,0 0,0 0,0 0,0 -0.1,0 -0.2,0 z"
           id="path3857" />
        <path
           style="fill:#58595b"
           inkscape:connector-curvature="0"
           class="st1"
           d="m 335.8,129.2 c 0,-1.6 1.4,-2.4 3.6,-2.4 2.7,0 7,1.4 10.4,3.4 l 3.1,-6.5 c -3.4,-2.2 -8.1,-3.6 -12.9,-3.6 -7.8,0 -13,3.8 -13,9.8 0,11.5 17.2,8.1 17.2,13.9 0,1.9 -1.6,2.8 -4.2,2.8 -3.4,0 -8.4,-2 -11.8,-4.9 l -3.2,6.4 c 3.9,3.2 9.5,5.2 14.9,5.2 7.3,0 13,-3.4 13,-10 0.1,-11.7 -17.1,-8.5 -17.1,-14.1 z"
           id="path3859" />
        <polygon
           style="fill:#58595b"
           class="st1"
           points="383,127 383,120.5 357.5,120.5 357.5,153.1 383.5,153.1 383.5,146.6 365.8,146.6 365.8,140 381.4,140 381.4,133.5 365.8,133.5 365.8,127 "
           id="polygon3861" />
        <path
           style="fill:#58595b"
           inkscape:connector-curvature="0"
           class="st1"
           d="m 399.5,120.5 -14.1,32.6 8.5,0 2.4,-6 14.2,0 2.3,6 8.8,0 -13.6,-32.6 -8.5,0 z m -0.8,20.3 4.7,-12.1 4.7,12.1 -9.4,0 z"
           id="path3863" />
        <path
           style="fill:#58595b"
           inkscape:connector-curvature="0"
           class="st1"
           d="m 472.6,146.2 c -5.2,0 -9.1,-4.1 -9.1,-9.6 0,-5.4 3.9,-9.5 9.1,-9.5 2.9,0 6.1,1.6 8.2,4.2 l 4.8,-5.7 c -3.3,-3.4 -8.3,-5.5 -13.1,-5.5 -9.9,0 -17.4,7.1 -17.4,16.5 0,9.5 7.3,16.8 17.1,16.8 4.8,0 10,-2.4 13.5,-6 l -4.8,-5.1 c -2.4,2.4 -5.6,3.9 -8.3,3.9 z"
           id="path3865" />
        <polygon
           style="fill:#58595b"
           class="st1"
           points="489.4,153.1 497.7,153.1 497.7,140.4 511.2,140.4 511.2,153.1 519.5,153.1 519.5,120.5 511.2,120.5 511.2,133.9 497.7,133.9 497.7,120.5 489.4,120.5 "
           id="polygon3867" />
      </g>
      <path
         style="fill:#58595b"
         inkscape:connector-curvature="0"
         class="st1"
         d="m 210.2,153.1 0,-33.3 22.5,0 0,3.9 -18.1,0 0,10.4 15.6,0 0,3.9 -15.6,0 0,15.1 -4.4,0 0,0 z m 28,0 0,-33.3 4.4,0 0,29.4 16.4,0 0,3.9 -20.8,0 0,0 z m 26.2,0 0,-33.3 24.1,0 0,3.9 -19.7,0 0,10.2 18.4,0 0,3.9 -18.4,0 0,11.4 20.4,0 0,3.9 -24.8,0 0,0 z m 27.6,0 12.9,-17.3 -11.3,-16 5.3,0 6.1,8.5 c 1.3,1.8 2.1,3.1 2.6,4.1 0.8,-1.2 1.6,-2.4 2.7,-3.7 l 6.7,-8.9 4.8,0 -11.6,15.8 12.5,17.5 -5.4,0 -8.4,-11.9 c -0.5,-0.7 -0.9,-1.4 -1.4,-2 -0.7,1.1 -1.3,1.9 -1.6,2.3 l -8.5,11.6 -5.4,0 0,0 z"
         id="path3869" />
      <path
         style="clip-rule:evenodd;fill:#ed1f24;fill-rule:evenodd"
         inkscape:connector-curvature="0"
         class="st2"
         d="M 148.7,130 C 67.8,4.7 60.8,227.7 130.2,172.9 c 7.1,-5.6 12.5,-16 17.2,-26.5 2.6,2.9 5.2,5.7 7.7,8.2 6.4,6.4 12.2,11.2 18,11.4 21.4,0.9 22.5,-32.9 17.3,-48 -3.3,-9.7 -12.7,-25.9 -24.8,-17.4 -3.7,2.5 -6.1,6.7 -10.8,16.5 -1.7,3.7 -3.8,8.2 -6.1,12.9 l 0,0 z m 15.2,20.8 c -3.9,-3.4 -7.8,-9 -11.8,-15.3 1.1,-2.7 2.2,-5.3 3.3,-7.8 32.1,-74 47.6,56.6 8.5,23.1 l 0,0 z m -28.1,-18.1 c 2.3,2.7 4.7,5.6 7.1,8.4 -2.2,4 -4.4,7.8 -6.7,11 -6.9,9.8 -13.9,13.9 -20.2,13 -28.9,-3.8 -27.2,-89.4 19.8,-32.4 l 0,0 z"
         id="path3871" />
      <linearGradient
         id="linearGradient4215"
         gradientUnits="userSpaceOnUse"
         x1="429.93939"
         y1="135.8521"
         x2="428.3728"
         y2="146.8181">
        <stop
           offset="0"
           style="stop-color:#414042"
           id="stop4217" />
        <stop
           offset="0.8548"
           style="stop-color:#414042;stop-opacity:0.1452"
           id="stop4219" />
        <stop
           offset="1"
           style="stop-color:#414042;stop-opacity:0"
           id="stop4221" />
      </linearGradient>
      <path
         style="fill:url(#SVGID_1_)"
         inkscape:connector-curvature="0"
         class="st3"
         d="m 432.6,143 c 0,0 -4.6,-2.5 -5.6,-6.8 -1,-4.3 -1,-4.9 -1,-4.9 l 0,17.7 6.6,0 0,-6 z"
         id="path3880" />
      <g
         id="g3882">
        <path
           style="fill:#58595b"
           inkscape:connector-curvature="0"
           class="st1"
           d="m 431,132.1 c -0.3,0 -0.5,-0.2 -0.5,-0.5 0,-3.5 2.9,-6.4 6.4,-6.4 0.3,0 0.5,0.2 0.5,0.5 0,0.3 -0.2,0.5 -0.5,0.5 -3,0 -5.4,2.4 -5.4,5.4 0,0.3 -0.2,0.5 -0.5,0.5 z"
           id="path3884" />
      </g>
    </g>
  </g>
</svg>
