<?xml version="1.0" standalone="no"?>
<!DOCTYPE svg PUBLIC "-//W3C//DTD SVG 20010904//EN"
 "http://www.w3.org/TR/2001/REC-SVG-20010904/DTD/svg10.dtd">
<svg version="1.0" xmlns="http://www.w3.org/2000/svg"
 width="700.000000pt" height="700.000000pt" viewBox="0 0 700.000000 700.000000"
 preserveAspectRatio="xMidYMid meet">
<metadata>
Created by potrace 1.11, written by Peter Selinger 2001-2013
</metadata>
<g transform="translate(0.000000,700.000000) scale(0.100000,-0.100000)"
fill="#000000" stroke="none">
<path d="M1310 6263 c-226 -38 -413 -142 -589 -329 -209 -221 -391 -583 -500
-996 -17 -62 -32 -124 -35 -138 -2 -14 -11 -54 -19 -90 -19 -82 -50 -264 -61
-360 -2 -19 -7 -60 -11 -90 -11 -95 -14 -131 -22 -265 -13 -235 -8 -668 12
-835 2 -19 6 -62 9 -95 30 -322 109 -703 207 -1000 210 -633 530 -1069 924
-1261 84 -41 196 -81 255 -90 14 -3 50 -9 81 -14 54 -10 249 -13 299 -6 14 2
43 7 65 10 71 9 178 37 280 72 221 75 485 224 735 415 168 128 280 241 417
419 69 90 233 329 244 356 3 8 144 261 170 304 31 54 215 435 259 538 12 28
25 52 29 52 4 0 40 -37 81 -82 213 -237 560 -586 705 -709 289 -247 511 -371
724 -404 72 -12 220 -7 316 10 144 26 311 101 423 191 112 90 234 252 316 419
55 111 128 300 140 361 2 11 11 46 19 79 8 33 18 78 23 100 4 22 8 45 10 50 1
6 5 28 8 50 4 23 8 52 11 65 3 13 7 53 10 89 3 36 8 83 11 105 12 76 20 539
10 591 -2 11 -7 61 -10 110 -22 290 -98 628 -195 873 -78 194 -217 457 -310
582 -122 165 -249 294 -372 376 -53 35 -100 64 -104 64 -5 0 -38 12 -74 26
-96 39 -236 44 -351 15 -218 -56 -405 -206 -568 -454 -85 -131 -287 -516 -417
-797 -100 -216 -116 -249 -207 -440 -46 -96 -91 -190 -99 -208 -7 -17 -17 -32
-21 -32 -4 0 -55 73 -114 161 -254 385 -584 827 -802 1074 -243 276 -468 500
-647 645 -44 35 -82 67 -85 70 -14 15 -216 153 -291 198 -312 187 -632 268
-889 225z m4532 -839 c267 -87 493 -495 603 -1084 12 -69 26 -152 29 -185 3
-33 8 -71 11 -84 23 -119 24 -682 1 -796 -2 -11 -7 -42 -10 -70 -12 -90 -17
-120 -22 -137 -3 -9 -7 -26 -9 -38 -75 -389 -255 -665 -490 -752 -86 -32 -241
-31 -345 1 -241 74 -505 262 -733 521 -98 111 -286 368 -423 580 -48 74 -91
137 -96 138 -4 2 -8 9 -8 15 0 13 184 453 236 565 19 40 34 75 34 78 0 12 195
393 251 492 207 360 418 603 619 715 46 25 125 53 170 60 43 6 133 -3 182 -19z
m-4017 -519 c70 -11 217 -65 315 -114 333 -166 736 -523 1149 -1016 51 -60
102 -121 114 -135 21 -24 151 -177 241 -284 22 -27 62 -74 88 -105 40 -47 45
-58 36 -75 -6 -12 -56 -100 -111 -196 -216 -377 -418 -658 -619 -860 -225
-226 -479 -373 -700 -406 -43 -6 -196 -6 -228 1 -14 2 -50 10 -80 16 -199 41
-431 195 -592 394 -42 51 -134 188 -159 235 -13 25 -28 52 -34 60 -17 22 -109
234 -140 320 -74 209 -129 452 -153 690 -10 90 -9 461 1 540 4 36 10 83 13
105 6 54 50 226 76 300 98 285 274 471 494 523 79 19 199 22 289 7z"/>
</g>
</svg>
